A small village is renowned for its "Ruby Glass" glass blowing works. When the foreman of the works dies suddenly without revealing the secret of the Ruby Glass, the town slides into a deep depression, and the owner of the glassworks becomes obssessed with the lost secret. 

General
Unique ID : 206399253171858302456522225333864458385 (0x9B470CDB1B0130DD849641AF3A936891)
Complete name : herz.aus.glas.1976.dvdrip.x264.ac3.2ch-[gx].mkv
Format : Matroska
Format version : Version 2
File size : 1.46 GiB
Duration : 1h 34mn
Overall bit rate : 2 212 Kbps
Encoded date : UTC 2010-04-04 12:51:53
Writing application : mkvmerge v3.3.0 ('Language') built on Mar 24 2010 14:59:24
Writing library : libebml v0.8.0 + libmatroska v0.9.0

Video
ID : 1
Format : AVC
Format/Info : Advanced Video Codec
Format profile : High@L4.1
Format settings, CABAC : Yes
Format settings, ReFrames : 16 frames
Codec ID : V_MPEG4/ISO/AVC
Duration : 1h 34mn
Bit rate : 2 018 Kbps
Width : 676 pixels
Height : 476 pixels
Display aspect ratio : 1.683
Frame rate : 23.976 fps
Color space : YUV
Chroma subsampling : 4:2:0
Bit depth : 8 bits
Scan type : Progressive
Bits/(Pixel*Frame) : 0.262
Stream size : 1.30 GiB (89%)
Title : Herz aus Glas / Heart of Glass (1976)
Writing library : x264 core 92 r1510 33d382a
Encoding settings : cabac=1 / ref=16 / deblock=1:-3:-3 / analyse=0x3:0x133 / me=umh / subme=10 / psy=1 / psy_rd=1.20:0.15 / mixed_ref=1 / me_range=24 / chroma_me=1 / trellis=2 / 8x8dct=1 / cqm=0 / deadzone=21,11 / fast_pskip=0 / chroma_qp_offset=-3 / threads=3 / sliced_threads=0 / nr=0 / decimate=0 / interlaced=0 / constrained_intra=0 / bframes=9 / b_pyramid=2 / b_adapt=2 / b_bias=0 / direct=3 / wpredb=1 / wpredp=2 / keyint=240 / keyint_min=24 / scenecut=40 / intra_refresh=0 / rc_lookahead=60 / rc=2pass / mbtree=1 / bitrate=2018 / ratetol=1.0 / qcomp=0.70 / qpmin=10 / qpmax=51 / qpstep=4 / cplxblur=20.0 / qblur=0.5 / ip_ratio=1.40 / aq=1:0.80

Audio
ID : 2
Format : AC-3
Format/Info : Audio Coding 3
Mode extension : CM (complete main)
Codec ID : A_AC3
Duration : 1h 34mn
Bit rate mode : Constant
Bit rate : 192 Kbps
Channel(s) : 2 channels
Channel positions : Front: L R
Sampling rate : 48.0 KHz
Bit depth : 16 bits
Compression mode : Lossy
Stream size : 129 MiB (9%)
Title : German Audio (AC3, 2 channels)
Language : German

Text
ID : 3
Format : UTF-8
Codec ID : S_TEXT/UTF8
Codec ID/Info : UTF-8 Plain Text
Title : English Subs (SRT)
Language : English